<?xml version="1.0" encoding="UTF-8" standalone="no"?>
<!DOCTYPE svg PUBLIC "-//W3C//DTD SVG 1.1//EN"
 "http://www.w3.org/Graphics/SVG/1.1/DTD/svg11.dtd">
<!-- Generated by graphviz version 2.40.1 (0)
 -->
<!-- Title: snakemake_dag Pages: 1 -->
<svg width="1271pt" height="764pt"
 viewBox="0.00 0.00 1270.99 764.00" xmlns="http://www.w3.org/2000/svg" xmlns:xlink="http://www.w3.org/1999/xlink">
<g id="graph0" class="graph" transform="scale(1 1) rotate(0) translate(4 760)">
<title>snakemake_dag</title>
<polygon fill="#ffffff" stroke="transparent" points="-4,4 -4,-760 1266.9878,-760 1266.9878,4 -4,4"/>
<!-- 0 -->
<g id="node1" class="node">
<title>0</title>
<path fill="none" stroke="#d89c56" stroke-width="2" d="M298.4634,-36C298.4634,-36 251.4634,-36 251.4634,-36 245.4634,-36 239.4634,-30 239.4634,-24 239.4634,-24 239.4634,-12 239.4634,-12 239.4634,-6 245.4634,0 251.4634,0 251.4634,0 298.4634,0 298.4634,0 304.4634,0 310.4634,-6 310.4634,-12 310.4634,-12 310.4634,-24 310.4634,-24 310.4634,-30 304.4634,-36 298.4634,-36"/>
<text text-anchor="middle" x="274.9634" y="-15.5" font-family="sans" font-size="10.00" fill="#000000">benchmark</text>
</g>
<!-- 1 -->
<g id="node2" class="node">
<title>1</title>
<path fill="none" stroke="#d88d56" stroke-width="2" d="M378.4634,-180C378.4634,-180 283.4634,-180 283.4634,-180 277.4634,-180 271.4634,-174 271.4634,-168 271.4634,-168 271.4634,-156 271.4634,-156 271.4634,-150 277.4634,-144 283.4634,-144 283.4634,-144 378.4634,-144 378.4634,-144 384.4634,-144 390.4634,-150 390.4634,-156 390.4634,-156 390.4634,-168 390.4634,-168 390.4634,-174 384.4634,-180 378.4634,-180"/>
<text text-anchor="middle" x="330.9634" y="-159.5" font-family="sans" font-size="10.00" fill="#000000">find_breakpoints_het</text>
</g>
<!-- 1&#45;&gt;0 -->
<g id="edge1" class="edge">
<title>1&#45;&gt;0</title>
<path fill="none" stroke="#c0c0c0" stroke-width="2" d="M328.9235,-143.8088C326.3806,-125.1884 321.0778,-95.702 310.9634,-72 306.8935,-62.4626 301.0972,-52.8037 295.3419,-44.3432"/>
<polygon fill="#c0c0c0" stroke="#c0c0c0" stroke-width="2" points="298.0743,-42.1458 289.4331,-36.0156 292.3654,-46.1966 298.0743,-42.1458"/>
</g>
<!-- 2 -->
<g id="node3" class="node">
<title>2</title>
<path fill="none" stroke="#569ad8" stroke-width="2" d="M459.4634,-252C459.4634,-252 418.4634,-252 418.4634,-252 412.4634,-252 406.4634,-246 406.4634,-240 406.4634,-240 406.4634,-228 406.4634,-228 406.4634,-222 412.4634,-216 418.4634,-216 418.4634,-216 459.4634,-216 459.4634,-216 465.4634,-216 471.4634,-222 471.4634,-228 471.4634,-228 471.4634,-240 471.4634,-240 471.4634,-246 465.4634,-252 459.4634,-252"/>
<text text-anchor="middle" x="438.9634" y="-231.5" font-family="sans" font-size="10.00" fill="#000000">split_data</text>
</g>
<!-- 2&#45;&gt;1 -->
<g id="edge3" class="edge">
<title>2&#45;&gt;1</title>
<path fill="none" stroke="#c0c0c0" stroke-width="2" d="M411.7104,-215.8314C398.0245,-206.7074 381.2719,-195.539 366.5807,-185.7449"/>
<polygon fill="#c0c0c0" stroke="#c0c0c0" stroke-width="2" points="368.4696,-182.7977 358.2076,-180.1628 364.5867,-188.6221 368.4696,-182.7977"/>
</g>
<!-- 3 -->
<g id="node4" class="node">
<title>3</title>
<path fill="none" stroke="#56a9d8" stroke-width="2" d="M429.4634,-540C429.4634,-540 352.4634,-540 352.4634,-540 346.4634,-540 340.4634,-534 340.4634,-528 340.4634,-528 340.4634,-516 340.4634,-516 340.4634,-510 346.4634,-504 352.4634,-504 352.4634,-504 429.4634,-504 429.4634,-504 435.4634,-504 441.4634,-510 441.4634,-516 441.4634,-516 441.4634,-528 441.4634,-528 441.4634,-534 435.4634,-540 429.4634,-540"/>
<text text-anchor="middle" x="390.9634" y="-519.5" font-family="sans" font-size="10.00" fill="#000000">bam_to_fvec_het</text>
</g>
<!-- 3&#45;&gt;2 -->
<g id="edge5" class="edge">
<title>3&#45;&gt;2</title>
<path fill="none" stroke="#c0c0c0" stroke-width="2" d="M392.4322,-503.9278C395.0181,-473.9007 400.9753,-411.8985 409.9634,-360 415.855,-325.9811 425.1354,-287.357 431.6059,-261.9416"/>
<polygon fill="#c0c0c0" stroke="#c0c0c0" stroke-width="2" points="435.0009,-262.7922 434.1041,-252.2354 428.2219,-261.0473 435.0009,-262.7922"/>
</g>
<!-- 10 -->
<g id="node11" class="node">
<title>10</title>
<path fill="none" stroke="#56d873" stroke-width="2" d="M669.9634,-468C669.9634,-468 565.9634,-468 565.9634,-468 559.9634,-468 553.9634,-462 553.9634,-456 553.9634,-456 553.9634,-444 553.9634,-444 553.9634,-438 559.9634,-432 565.9634,-432 565.9634,-432 669.9634,-432 669.9634,-432 675.9634,-432 681.9634,-438 681.9634,-444 681.9634,-444 681.9634,-456 681.9634,-456 681.9634,-462 675.9634,-468 669.9634,-468"/>
<text text-anchor="middle" x="617.9634" y="-447.5" font-family="sans" font-size="10.00" fill="#000000">organize_training_data</text>
</g>
<!-- 3&#45;&gt;10 -->
<g id="edge15" class="edge">
<title>3&#45;&gt;10</title>
<path fill="none" stroke="#c0c0c0" stroke-width="2" d="M441.6241,-505.9314C473.992,-495.6649 516.3162,-482.2405 551.3864,-471.1169"/>
<polygon fill="#c0c0c0" stroke="#c0c0c0" stroke-width="2" points="552.5975,-474.4047 561.0713,-468.0451 550.4811,-467.7323 552.5975,-474.4047"/>
</g>
<!-- 26 -->
<g id="node27" class="node">
<title>26</title>
<path fill="none" stroke="#56c1d8" stroke-width="2" d="M509.4634,-180C509.4634,-180 420.4634,-180 420.4634,-180 414.4634,-180 408.4634,-174 408.4634,-168 408.4634,-168 408.4634,-156 408.4634,-156 408.4634,-150 414.4634,-144 420.4634,-144 420.4634,-144 509.4634,-144 509.4634,-144 515.4634,-144 521.4634,-150 521.4634,-156 521.4634,-156 521.4634,-168 521.4634,-168 521.4634,-174 515.4634,-180 509.4634,-180"/>
<text text-anchor="middle" x="464.9634" y="-159.5" font-family="sans" font-size="10.00" fill="#000000">split_data_classifier</text>
</g>
<!-- 3&#45;&gt;26 -->
<g id="edge39" class="edge">
<title>3&#45;&gt;26</title>
<path fill="none" stroke="#c0c0c0" stroke-width="2" d="M386.2424,-503.8429C374.4225,-454.4458 347.8776,-314.7262 396.9634,-216 402.7888,-204.2835 412.4809,-194.3043 422.7481,-186.2314"/>
<polygon fill="#c0c0c0" stroke="#c0c0c0" stroke-width="2" points="425.0345,-188.8955 431.0425,-180.1689 420.9038,-183.2441 425.0345,-188.8955"/>
</g>
<!-- 4 -->
<g id="node5" class="node">
<title>4</title>
<path fill="none" stroke="#d8ac56" stroke-width="2" d="M486.4634,-612C486.4634,-612 303.4634,-612 303.4634,-612 297.4634,-612 291.4634,-606 291.4634,-600 291.4634,-600 291.4634,-588 291.4634,-588 291.4634,-582 297.4634,-576 303.4634,-576 303.4634,-576 486.4634,-576 486.4634,-576 492.4634,-576 498.4634,-582 498.4634,-588 498.4634,-588 498.4634,-600 498.4634,-600 498.4634,-606 492.4634,-612 486.4634,-612"/>
<text text-anchor="middle" x="394.9634" y="-591.5" font-family="sans" font-size="10.00" fill="#000000">process_candidate_regions_hettraining</text>
</g>
<!-- 4&#45;&gt;3 -->
<g id="edge7" class="edge">
<title>4&#45;&gt;3</title>
<path fill="none" stroke="#c0c0c0" stroke-width="2" d="M393.954,-575.8314C393.5262,-568.131 393.0175,-558.9743 392.5421,-550.4166"/>
<polygon fill="#c0c0c0" stroke="#c0c0c0" stroke-width="2" points="396.0358,-550.2037 391.9864,-540.4133 389.0465,-550.592 396.0358,-550.2037"/>
</g>
<!-- 19 -->
<g id="node20" class="node">
<title>19</title>
<path fill="none" stroke="#d87d56" stroke-width="2" d="M289.9634,-540C289.9634,-540 161.9634,-540 161.9634,-540 155.9634,-540 149.9634,-534 149.9634,-528 149.9634,-528 149.9634,-516 149.9634,-516 149.9634,-510 155.9634,-504 161.9634,-504 161.9634,-504 289.9634,-504 289.9634,-504 295.9634,-504 301.9634,-510 301.9634,-516 301.9634,-516 301.9634,-528 301.9634,-528 301.9634,-534 295.9634,-540 289.9634,-540"/>
<text text-anchor="middle" x="225.9634" y="-519.5" font-family="sans" font-size="10.00" fill="#000000">bam_to_fvec_reference_het</text>
</g>
<!-- 4&#45;&gt;19 -->
<g id="edge27" class="edge">
<title>4&#45;&gt;19</title>
<path fill="none" stroke="#c0c0c0" stroke-width="2" d="M352.3176,-575.8314C329.6143,-566.159 301.5183,-554.1891 277.5892,-543.9944"/>
<polygon fill="#c0c0c0" stroke="#c0c0c0" stroke-width="2" points="278.8743,-540.7376 268.3026,-540.038 276.1306,-547.1775 278.8743,-540.7376"/>
</g>
<!-- 5 -->
<g id="node6" class="node">
<title>5</title>
<path fill="none" stroke="#8fd856" stroke-width="2" d="M446.4634,-684C446.4634,-684 343.4634,-684 343.4634,-684 337.4634,-684 331.4634,-678 331.4634,-672 331.4634,-672 331.4634,-660 331.4634,-660 331.4634,-654 337.4634,-648 343.4634,-648 343.4634,-648 446.4634,-648 446.4634,-648 452.4634,-648 458.4634,-654 458.4634,-660 458.4634,-660 458.4634,-672 458.4634,-672 458.4634,-678 452.4634,-684 446.4634,-684"/>
<text text-anchor="middle" x="394.9634" y="-663.5" font-family="sans" font-size="10.00" fill="#000000">candidate_regions_het</text>
</g>
<!-- 5&#45;&gt;4 -->
<g id="edge9" class="edge">
<title>5&#45;&gt;4</title>
<path fill="none" stroke="#c0c0c0" stroke-width="2" d="M394.9634,-647.8314C394.9634,-640.131 394.9634,-630.9743 394.9634,-622.4166"/>
<polygon fill="#c0c0c0" stroke="#c0c0c0" stroke-width="2" points="398.4635,-622.4132 394.9634,-612.4133 391.4635,-622.4133 398.4635,-622.4132"/>
</g>
<!-- 6 -->
<g id="node7" class="node">
<title>6</title>
<path fill="none" stroke="#59d856" stroke-width="2" d="M386.4634,-756C386.4634,-756 273.4634,-756 273.4634,-756 267.4634,-756 261.4634,-750 261.4634,-744 261.4634,-744 261.4634,-732 261.4634,-732 261.4634,-726 267.4634,-720 273.4634,-720 273.4634,-720 386.4634,-720 386.4634,-720 392.4634,-720 398.4634,-726 398.4634,-732 398.4634,-732 398.4634,-744 398.4634,-744 398.4634,-750 392.4634,-756 386.4634,-756"/>
<text text-anchor="middle" x="329.9634" y="-741" font-family="sans" font-size="10.00" fill="#000000">generate_synthetic_hets</text>
<text text-anchor="middle" x="329.9634" y="-730" font-family="sans" font-size="10.00" fill="#000000">sample: A3_A3</text>
</g>
<!-- 6&#45;&gt;5 -->
<g id="edge10" class="edge">
<title>6&#45;&gt;5</title>
<path fill="none" stroke="#c0c0c0" stroke-width="2" d="M346.3656,-719.8314C354.0049,-711.3694 363.2317,-701.1489 371.5841,-691.8971"/>
<polygon fill="#c0c0c0" stroke="#c0c0c0" stroke-width="2" points="374.2372,-694.1813 378.3403,-684.4133 369.0413,-689.4906 374.2372,-694.1813"/>
</g>
<!-- 8 -->
<g id="node9" class="node">
<title>8</title>
<path fill="none" stroke="#d8d356" stroke-width="2" d="M260.9634,-612C260.9634,-612 190.9634,-612 190.9634,-612 184.9634,-612 178.9634,-606 178.9634,-600 178.9634,-600 178.9634,-588 178.9634,-588 178.9634,-582 184.9634,-576 190.9634,-576 190.9634,-576 260.9634,-576 260.9634,-576 266.9634,-576 272.9634,-582 272.9634,-588 272.9634,-588 272.9634,-600 272.9634,-600 272.9634,-606 266.9634,-612 260.9634,-612"/>
<text text-anchor="middle" x="225.9634" y="-591.5" font-family="sans" font-size="10.00" fill="#000000">align_reads_het</text>
</g>
<!-- 6&#45;&gt;8 -->
<g id="edge12" class="edge">
<title>6&#45;&gt;8</title>
<path fill="none" stroke="#c0c0c0" stroke-width="2" d="M316.7917,-719.7623C298.6623,-694.66 265.9035,-649.3017 245.0785,-620.4671"/>
<polygon fill="#c0c0c0" stroke="#c0c0c0" stroke-width="2" points="247.7204,-618.1472 239.0281,-612.0896 242.0457,-622.2457 247.7204,-618.1472"/>
</g>
<!-- 7 -->
<g id="node8" class="node">
<title>7</title>
<path fill="none" stroke="#d86656" stroke-width="2" d="M709.4634,-756C709.4634,-756 642.4634,-756 642.4634,-756 636.4634,-756 630.4634,-750 630.4634,-744 630.4634,-744 630.4634,-732 630.4634,-732 630.4634,-726 636.4634,-720 642.4634,-720 642.4634,-720 709.4634,-720 709.4634,-720 715.4634,-720 721.4634,-726 721.4634,-732 721.4634,-732 721.4634,-744 721.4634,-744 721.4634,-750 715.4634,-756 709.4634,-756"/>
<text text-anchor="middle" x="675.9634" y="-735.5" font-family="sans" font-size="10.00" fill="#000000">filter_reference</text>
</g>
<!-- 7&#45;&gt;5 -->
<g id="edge11" class="edge">
<title>7&#45;&gt;5</title>
<path fill="none" stroke="#c0c0c0" stroke-width="2" d="M630.1905,-726.2717C586.3602,-715.0412 519.5082,-697.9118 468.2604,-684.7807"/>
<polygon fill="#c0c0c0" stroke="#c0c0c0" stroke-width="2" points="469.1124,-681.386 458.5566,-682.2943 467.3749,-688.167 469.1124,-681.386"/>
</g>
<!-- 15 -->
<g id="node16" class="node">
<title>15</title>
<path fill="none" stroke="#8fd856" stroke-width="2" d="M917.4634,-684C917.4634,-684 814.4634,-684 814.4634,-684 808.4634,-684 802.4634,-678 802.4634,-672 802.4634,-672 802.4634,-660 802.4634,-660 802.4634,-654 808.4634,-648 814.4634,-648 814.4634,-648 917.4634,-648 917.4634,-648 923.4634,-648 929.4634,-654 929.4634,-660 929.4634,-660 929.4634,-672 929.4634,-672 929.4634,-678 923.4634,-684 917.4634,-684"/>
<text text-anchor="middle" x="865.9634" y="-663.5" font-family="sans" font-size="10.00" fill="#000000">candidate_regions_het</text>
</g>
<!-- 7&#45;&gt;15 -->
<g id="edge23" class="edge">
<title>7&#45;&gt;15</title>
<path fill="none" stroke="#c0c0c0" stroke-width="2" d="M721.4731,-720.7542C747.5959,-710.855 780.6453,-698.3311 808.5412,-687.76"/>
<polygon fill="#c0c0c0" stroke="#c0c0c0" stroke-width="2" points="810.0628,-690.9263 818.1736,-684.1098 807.5822,-684.3806 810.0628,-690.9263"/>
</g>
<!-- 8&#45;&gt;3 -->
<g id="edge8" class="edge">
<title>8&#45;&gt;3</title>
<path fill="none" stroke="#c0c0c0" stroke-width="2" d="M267.5999,-575.8314C289.6676,-566.2018 316.9541,-554.295 340.2491,-544.1299"/>
<polygon fill="#c0c0c0" stroke="#c0c0c0" stroke-width="2" points="341.8608,-547.2454 349.6263,-540.038 339.0611,-540.8296 341.8608,-547.2454"/>
</g>
<!-- 8&#45;&gt;19 -->
<g id="edge28" class="edge">
<title>8&#45;&gt;19</title>
<path fill="none" stroke="#c0c0c0" stroke-width="2" d="M225.9634,-575.8314C225.9634,-568.131 225.9634,-558.9743 225.9634,-550.4166"/>
<polygon fill="#c0c0c0" stroke="#c0c0c0" stroke-width="2" points="229.4635,-550.4132 225.9634,-540.4133 222.4635,-550.4133 229.4635,-550.4132"/>
</g>
<!-- 9 -->
<g id="node10" class="node">
<title>9</title>
<path fill="none" stroke="#ced856" stroke-width="2" d="M669.9634,-324C669.9634,-324 609.9634,-324 609.9634,-324 603.9634,-324 597.9634,-318 597.9634,-312 597.9634,-312 597.9634,-300 597.9634,-300 597.9634,-294 603.9634,-288 609.9634,-288 609.9634,-288 669.9634,-288 669.9634,-288 675.9634,-288 681.9634,-294 681.9634,-300 681.9634,-300 681.9634,-312 681.9634,-312 681.9634,-318 675.9634,-324 669.9634,-324"/>
<text text-anchor="middle" x="639.9634" y="-303.5" font-family="sans" font-size="10.00" fill="#000000">train_validate</text>
</g>
<!-- 9&#45;&gt;2 -->
<g id="edge6" class="edge">
<title>9&#45;&gt;2</title>
<path fill="none" stroke="#c0c0c0" stroke-width="2" d="M597.7737,-292.4352C565.7891,-281.9456 520.8527,-266.7662 481.9634,-252 481.7553,-251.921 481.5468,-251.8416 481.3378,-251.7619"/>
<polygon fill="#c0c0c0" stroke="#c0c0c0" stroke-width="2" points="482.3274,-248.3902 471.7402,-247.987 479.7652,-254.9044 482.3274,-248.3902"/>
</g>
<!-- 27 -->
<g id="node28" class="node">
<title>27</title>
<path fill="none" stroke="#56d89a" stroke-width="2" d="M612.4634,-252C612.4634,-252 503.4634,-252 503.4634,-252 497.4634,-252 491.4634,-246 491.4634,-240 491.4634,-240 491.4634,-228 491.4634,-228 491.4634,-222 497.4634,-216 503.4634,-216 503.4634,-216 612.4634,-216 612.4634,-216 618.4634,-216 624.4634,-222 624.4634,-228 624.4634,-228 624.4634,-240 624.4634,-240 624.4634,-246 618.4634,-252 612.4634,-252"/>
<text text-anchor="middle" x="557.9634" y="-231.5" font-family="sans" font-size="10.00" fill="#000000">train_validate_classifier</text>
</g>
<!-- 9&#45;&gt;27 -->
<g id="edge41" class="edge">
<title>9&#45;&gt;27</title>
<path fill="none" stroke="#c0c0c0" stroke-width="2" d="M619.2713,-287.8314C609.2686,-279.0485 597.1084,-268.3712 586.2635,-258.8489"/>
<polygon fill="#c0c0c0" stroke="#c0c0c0" stroke-width="2" points="588.4726,-256.1308 578.6488,-252.1628 583.8539,-261.3909 588.4726,-256.1308"/>
</g>
<!-- 10&#45;&gt;9 -->
<g id="edge13" class="edge">
<title>10&#45;&gt;9</title>
<path fill="none" stroke="#c0c0c0" stroke-width="2" d="M623.9945,-431.708C627.1706,-421.3441 630.8375,-408.074 632.9634,-396 636.5812,-375.4525 638.3293,-351.9373 639.1739,-334.0975"/>
<polygon fill="#c0c0c0" stroke="#c0c0c0" stroke-width="2" points="642.6729,-334.1923 639.5829,-324.0581 635.6787,-333.9073 642.6729,-334.1923"/>
</g>
<!-- 11 -->
<g id="node12" class="node">
<title>11</title>
<path fill="none" stroke="#80d856" stroke-width="2" d="M937.4634,-396C937.4634,-396 842.4634,-396 842.4634,-396 836.4634,-396 830.4634,-390 830.4634,-384 830.4634,-384 830.4634,-372 830.4634,-372 830.4634,-366 836.4634,-360 842.4634,-360 842.4634,-360 937.4634,-360 937.4634,-360 943.4634,-360 949.4634,-366 949.4634,-372 949.4634,-372 949.4634,-384 949.4634,-384 949.4634,-390 943.4634,-396 937.4634,-396"/>
<text text-anchor="middle" x="889.9634" y="-375.5" font-family="sans" font-size="10.00" fill="#000000">aggregate_organized</text>
</g>
<!-- 10&#45;&gt;11 -->
<g id="edge17" class="edge">
<title>10&#45;&gt;11</title>
<path fill="none" stroke="#c0c0c0" stroke-width="2" d="M682.0792,-433.0282C723.6067,-422.0356 777.6828,-407.7213 820.2722,-396.4477"/>
<polygon fill="#c0c0c0" stroke="#c0c0c0" stroke-width="2" points="821.2328,-399.814 830.0042,-393.8715 819.4415,-393.0471 821.2328,-399.814"/>
</g>
<!-- 10&#45;&gt;27 -->
<g id="edge42" class="edge">
<title>10&#45;&gt;27</title>
<path fill="none" stroke="#c0c0c0" stroke-width="2" d="M615.0287,-431.9189C611.9025,-413.637 606.5072,-384.641 599.9634,-360 595.0184,-341.3792 578.6327,-293.3788 567.8497,-262.2896"/>
<polygon fill="#c0c0c0" stroke="#c0c0c0" stroke-width="2" points="571.0225,-260.7572 564.4323,-252.4615 564.4108,-263.0563 571.0225,-260.7572"/>
</g>
<!-- 11&#45;&gt;9 -->
<g id="edge14" class="edge">
<title>11&#45;&gt;9</title>
<path fill="none" stroke="#c0c0c0" stroke-width="2" d="M830.3998,-360.8457C788.2383,-348.7032 732.2448,-332.5771 691.8994,-320.9576"/>
<polygon fill="#c0c0c0" stroke="#c0c0c0" stroke-width="2" points="692.8334,-317.5844 682.2553,-318.1801 690.8961,-324.311 692.8334,-317.5844"/>
</g>
<!-- 11&#45;&gt;27 -->
<g id="edge43" class="edge">
<title>11&#45;&gt;27</title>
<path fill="none" stroke="#c0c0c0" stroke-width="2" d="M894.499,-359.8581C898.3789,-339.585 900.8499,-307.107 882.9634,-288 846.6208,-249.1774 703.8273,-261.0955 634.6644,-251.7571"/>
<polygon fill="#c0c0c0" stroke="#c0c0c0" stroke-width="2" points="635.0485,-248.274 624.6195,-250.1412 633.9366,-255.1851 635.0485,-248.274"/>
</g>
<!-- 33 -->
<g id="node34" class="node">
<title>33</title>
<path fill="none" stroke="#ced856" stroke-width="2" d="M1077.9634,-324C1077.9634,-324 1017.9634,-324 1017.9634,-324 1011.9634,-324 1005.9634,-318 1005.9634,-312 1005.9634,-312 1005.9634,-300 1005.9634,-300 1005.9634,-294 1011.9634,-288 1017.9634,-288 1017.9634,-288 1077.9634,-288 1077.9634,-288 1083.9634,-288 1089.9634,-294 1089.9634,-300 1089.9634,-300 1089.9634,-312 1089.9634,-312 1089.9634,-318 1083.9634,-324 1077.9634,-324"/>
<text text-anchor="middle" x="1047.9634" y="-303.5" font-family="sans" font-size="10.00" fill="#000000">train_validate</text>
</g>
<!-- 11&#45;&gt;33 -->
<g id="edge56" class="edge">
<title>11&#45;&gt;33</title>
<path fill="none" stroke="#c0c0c0" stroke-width="2" d="M929.8335,-359.8314C950.8711,-350.2446 976.8617,-338.4008 999.103,-328.2655"/>
<polygon fill="#c0c0c0" stroke="#c0c0c0" stroke-width="2" points="1000.7317,-331.3697 1008.38,-324.038 997.8289,-324.9999 1000.7317,-331.3697"/>
</g>
<!-- 38 -->
<g id="node39" class="node">
<title>38</title>
<path fill="none" stroke="#56d89a" stroke-width="2" d="M1101.4634,-252C1101.4634,-252 992.4634,-252 992.4634,-252 986.4634,-252 980.4634,-246 980.4634,-240 980.4634,-240 980.4634,-228 980.4634,-228 980.4634,-222 986.4634,-216 992.4634,-216 992.4634,-216 1101.4634,-216 1101.4634,-216 1107.4634,-216 1113.4634,-222 1113.4634,-228 1113.4634,-228 1113.4634,-240 1113.4634,-240 1113.4634,-246 1107.4634,-252 1101.4634,-252"/>
<text text-anchor="middle" x="1046.9634" y="-231.5" font-family="sans" font-size="10.00" fill="#000000">train_validate_classifier</text>
</g>
<!-- 11&#45;&gt;38 -->
<g id="edge67" class="edge">
<title>11&#45;&gt;38</title>
<path fill="none" stroke="#c0c0c0" stroke-width="2" d="M909.8476,-359.7623C937.6879,-334.2272 988.381,-287.7316 1019.7167,-258.9906"/>
<polygon fill="#c0c0c0" stroke="#c0c0c0" stroke-width="2" points="1022.2369,-261.4284 1027.2407,-252.0896 1017.5053,-256.2697 1022.2369,-261.4284"/>
</g>
<!-- 12 -->
<g id="node13" class="node">
<title>12</title>
<path fill="none" stroke="#56d873" stroke-width="2" d="M1099.9634,-468C1099.9634,-468 995.9634,-468 995.9634,-468 989.9634,-468 983.9634,-462 983.9634,-456 983.9634,-456 983.9634,-444 983.9634,-444 983.9634,-438 989.9634,-432 995.9634,-432 995.9634,-432 1099.9634,-432 1099.9634,-432 1105.9634,-432 1111.9634,-438 1111.9634,-444 1111.9634,-444 1111.9634,-456 1111.9634,-456 1111.9634,-462 1105.9634,-468 1099.9634,-468"/>
<text text-anchor="middle" x="1047.9634" y="-447.5" font-family="sans" font-size="10.00" fill="#000000">organize_training_data</text>
</g>
<!-- 12&#45;&gt;11 -->
<g id="edge16" class="edge">
<title>12&#45;&gt;11</title>
<path fill="none" stroke="#c0c0c0" stroke-width="2" d="M1008.0933,-431.8314C987.0557,-422.2446 961.0651,-410.4008 938.8238,-400.2655"/>
<polygon fill="#c0c0c0" stroke="#c0c0c0" stroke-width="2" points="940.0979,-396.9999 929.5468,-396.038 937.1951,-403.3697 940.0979,-396.9999"/>
</g>
<!-- 12&#45;&gt;33 -->
<g id="edge55" class="edge">
<title>12&#45;&gt;33</title>
<path fill="none" stroke="#c0c0c0" stroke-width="2" d="M1047.9634,-431.7623C1047.9634,-407.201 1047.9634,-363.2474 1047.9634,-334.3541"/>
<polygon fill="#c0c0c0" stroke="#c0c0c0" stroke-width="2" points="1051.4635,-334.0896 1047.9634,-324.0896 1044.4635,-334.0897 1051.4635,-334.0896"/>
</g>
<!-- 12&#45;&gt;38 -->
<g id="edge66" class="edge">
<title>12&#45;&gt;38</title>
<path fill="none" stroke="#c0c0c0" stroke-width="2" d="M1061.9178,-431.6958C1083.2566,-401.3352 1119.4722,-338.8646 1098.9634,-288 1094.6409,-277.2796 1087.059,-267.4983 1078.9995,-259.2948"/>
<polygon fill="#c0c0c0" stroke="#c0c0c0" stroke-width="2" points="1081.2076,-256.5652 1071.5435,-252.2228 1076.3904,-261.644 1081.2076,-256.5652"/>
</g>
<!-- 13 -->
<g id="node14" class="node">
<title>13</title>
<path fill="none" stroke="#56a9d8" stroke-width="2" d="M1086.4634,-540C1086.4634,-540 1009.4634,-540 1009.4634,-540 1003.4634,-540 997.4634,-534 997.4634,-528 997.4634,-528 997.4634,-516 997.4634,-516 997.4634,-510 1003.4634,-504 1009.4634,-504 1009.4634,-504 1086.4634,-504 1086.4634,-504 1092.4634,-504 1098.4634,-510 1098.4634,-516 1098.4634,-516 1098.4634,-528 1098.4634,-528 1098.4634,-534 1092.4634,-540 1086.4634,-540"/>
<text text-anchor="middle" x="1047.9634" y="-519.5" font-family="sans" font-size="10.00" fill="#000000">bam_to_fvec_het</text>
</g>
<!-- 13&#45;&gt;12 -->
<g id="edge18" class="edge">
<title>13&#45;&gt;12</title>
<path fill="none" stroke="#c0c0c0" stroke-width="2" d="M1047.9634,-503.8314C1047.9634,-496.131 1047.9634,-486.9743 1047.9634,-478.4166"/>
<polygon fill="#c0c0c0" stroke="#c0c0c0" stroke-width="2" points="1051.4635,-478.4132 1047.9634,-468.4133 1044.4635,-478.4133 1051.4635,-478.4132"/>
</g>
<!-- 32 -->
<g id="node33" class="node">
<title>32</title>
<path fill="none" stroke="#569ad8" stroke-width="2" d="M1184.4634,-252C1184.4634,-252 1143.4634,-252 1143.4634,-252 1137.4634,-252 1131.4634,-246 1131.4634,-240 1131.4634,-240 1131.4634,-228 1131.4634,-228 1131.4634,-222 1137.4634,-216 1143.4634,-216 1143.4634,-216 1184.4634,-216 1184.4634,-216 1190.4634,-216 1196.4634,-222 1196.4634,-228 1196.4634,-228 1196.4634,-240 1196.4634,-240 1196.4634,-246 1190.4634,-252 1184.4634,-252"/>
<text text-anchor="middle" x="1163.9634" y="-231.5" font-family="sans" font-size="10.00" fill="#000000">split_data</text>
</g>
<!-- 13&#45;&gt;32 -->
<g id="edge53" class="edge">
<title>13&#45;&gt;32</title>
<path fill="none" stroke="#c0c0c0" stroke-width="2" d="M1082.7775,-503.941C1096.7465,-494.9697 1111.7009,-482.8458 1120.9634,-468 1161.649,-402.7897 1165.9067,-308.7439 1165.1975,-262.2372"/>
<polygon fill="#c0c0c0" stroke="#c0c0c0" stroke-width="2" points="1168.6909,-261.9194 1164.9474,-252.008 1161.693,-262.0906 1168.6909,-261.9194"/>
</g>
<!-- 37 -->
<g id="node38" class="node">
<title>37</title>
<path fill="none" stroke="#56c1d8" stroke-width="2" d="M1199.4634,-180C1199.4634,-180 1110.4634,-180 1110.4634,-180 1104.4634,-180 1098.4634,-174 1098.4634,-168 1098.4634,-168 1098.4634,-156 1098.4634,-156 1098.4634,-150 1104.4634,-144 1110.4634,-144 1110.4634,-144 1199.4634,-144 1199.4634,-144 1205.4634,-144 1211.4634,-150 1211.4634,-156 1211.4634,-156 1211.4634,-168 1211.4634,-168 1211.4634,-174 1205.4634,-180 1199.4634,-180"/>
<text text-anchor="middle" x="1154.9634" y="-159.5" font-family="sans" font-size="10.00" fill="#000000">split_data_classifier</text>
</g>
<!-- 13&#45;&gt;37 -->
<g id="edge63" class="edge">
<title>13&#45;&gt;37</title>
<path fill="none" stroke="#c0c0c0" stroke-width="2" d="M1098.6431,-511.5566C1162.2065,-495.1519 1262.9634,-456.7311 1262.9634,-378 1262.9634,-378 1262.9634,-378 1262.9634,-306 1262.9634,-264.6022 1263.3537,-249.4498 1238.9634,-216 1230.0003,-203.7077 1217.3124,-193.4977 1204.5063,-185.3868"/>
<polygon fill="#c0c0c0" stroke="#c0c0c0" stroke-width="2" points="1206.046,-182.2297 1195.666,-180.107 1202.4567,-188.2395 1206.046,-182.2297"/>
</g>
<!-- 14 -->
<g id="node15" class="node">
<title>14</title>
<path fill="none" stroke="#d8ac56" stroke-width="2" d="M957.4634,-612C957.4634,-612 774.4634,-612 774.4634,-612 768.4634,-612 762.4634,-606 762.4634,-600 762.4634,-600 762.4634,-588 762.4634,-588 762.4634,-582 768.4634,-576 774.4634,-576 774.4634,-576 957.4634,-576 957.4634,-576 963.4634,-576 969.4634,-582 969.4634,-588 969.4634,-588 969.4634,-600 969.4634,-600 969.4634,-606 963.4634,-612 957.4634,-612"/>
<text text-anchor="middle" x="865.9634" y="-591.5" font-family="sans" font-size="10.00" fill="#000000">process_candidate_regions_hettraining</text>
</g>
<!-- 14&#45;&gt;13 -->
<g id="edge19" class="edge">
<title>14&#45;&gt;13</title>
<path fill="none" stroke="#c0c0c0" stroke-width="2" d="M911.8897,-575.8314C936.5557,-566.0734 967.1325,-553.977 993.0494,-543.7242"/>
<polygon fill="#c0c0c0" stroke="#c0c0c0" stroke-width="2" points="994.3561,-546.9713 1002.3674,-540.038 991.781,-540.4621 994.3561,-546.9713"/>
</g>
<!-- 24 -->
<g id="node25" class="node">
<title>24</title>
<path fill="none" stroke="#d87d56" stroke-width="2" d="M929.9634,-540C929.9634,-540 801.9634,-540 801.9634,-540 795.9634,-540 789.9634,-534 789.9634,-528 789.9634,-528 789.9634,-516 789.9634,-516 789.9634,-510 795.9634,-504 801.9634,-504 801.9634,-504 929.9634,-504 929.9634,-504 935.9634,-504 941.9634,-510 941.9634,-516 941.9634,-516 941.9634,-528 941.9634,-528 941.9634,-534 935.9634,-540 929.9634,-540"/>
<text text-anchor="middle" x="865.9634" y="-519.5" font-family="sans" font-size="10.00" fill="#000000">bam_to_fvec_reference_het</text>
</g>
<!-- 14&#45;&gt;24 -->
<g id="edge35" class="edge">
<title>14&#45;&gt;24</title>
<path fill="none" stroke="#c0c0c0" stroke-width="2" d="M865.9634,-575.8314C865.9634,-568.131 865.9634,-558.9743 865.9634,-550.4166"/>
<polygon fill="#c0c0c0" stroke="#c0c0c0" stroke-width="2" points="869.4635,-550.4132 865.9634,-540.4133 862.4635,-550.4133 869.4635,-550.4132"/>
</g>
<!-- 15&#45;&gt;14 -->
<g id="edge21" class="edge">
<title>15&#45;&gt;14</title>
<path fill="none" stroke="#c0c0c0" stroke-width="2" d="M865.9634,-647.8314C865.9634,-640.131 865.9634,-630.9743 865.9634,-622.4166"/>
<polygon fill="#c0c0c0" stroke="#c0c0c0" stroke-width="2" points="869.4635,-622.4132 865.9634,-612.4133 862.4635,-622.4133 869.4635,-622.4132"/>
</g>
<!-- 16 -->
<g id="node17" class="node">
<title>16</title>
<path fill="none" stroke="#59d856" stroke-width="2" d="M968.4634,-756C968.4634,-756 855.4634,-756 855.4634,-756 849.4634,-756 843.4634,-750 843.4634,-744 843.4634,-744 843.4634,-732 843.4634,-732 843.4634,-726 849.4634,-720 855.4634,-720 855.4634,-720 968.4634,-720 968.4634,-720 974.4634,-720 980.4634,-726 980.4634,-732 980.4634,-732 980.4634,-744 980.4634,-744 980.4634,-750 974.4634,-756 968.4634,-756"/>
<text text-anchor="middle" x="911.9634" y="-741" font-family="sans" font-size="10.00" fill="#000000">generate_synthetic_hets</text>
<text text-anchor="middle" x="911.9634" y="-730" font-family="sans" font-size="10.00" fill="#000000">sample: A2_A2</text>
</g>
<!-- 16&#45;&gt;15 -->
<g id="edge22" class="edge">
<title>16&#45;&gt;15</title>
<path fill="none" stroke="#c0c0c0" stroke-width="2" d="M900.3556,-719.8314C895.1656,-711.7079 888.9402,-701.9637 883.2209,-693.0118"/>
<polygon fill="#c0c0c0" stroke="#c0c0c0" stroke-width="2" points="886.0608,-690.9559 877.7274,-684.4133 880.1619,-694.7246 886.0608,-690.9559"/>
</g>
<!-- 17 -->
<g id="node18" class="node">
<title>17</title>
<path fill="none" stroke="#d8d356" stroke-width="2" d="M1069.9634,-612C1069.9634,-612 999.9634,-612 999.9634,-612 993.9634,-612 987.9634,-606 987.9634,-600 987.9634,-600 987.9634,-588 987.9634,-588 987.9634,-582 993.9634,-576 999.9634,-576 999.9634,-576 1069.9634,-576 1069.9634,-576 1075.9634,-576 1081.9634,-582 1081.9634,-588 1081.9634,-588 1081.9634,-600 1081.9634,-600 1081.9634,-606 1075.9634,-612 1069.9634,-612"/>
<text text-anchor="middle" x="1034.9634" y="-591.5" font-family="sans" font-size="10.00" fill="#000000">align_reads_het</text>
</g>
<!-- 16&#45;&gt;17 -->
<g id="edge24" class="edge">
<title>16&#45;&gt;17</title>
<path fill="none" stroke="#c0c0c0" stroke-width="2" d="M927.5414,-719.7623C949.1678,-694.4436 988.3958,-648.5182 1012.9899,-619.7251"/>
<polygon fill="#c0c0c0" stroke="#c0c0c0" stroke-width="2" points="1015.6783,-621.9666 1019.5118,-612.0896 1010.3556,-617.4202 1015.6783,-621.9666"/>
</g>
<!-- 17&#45;&gt;13 -->
<g id="edge20" class="edge">
<title>17&#45;&gt;13</title>
<path fill="none" stroke="#c0c0c0" stroke-width="2" d="M1038.2438,-575.8314C1039.6342,-568.131 1041.2875,-558.9743 1042.8326,-550.4166"/>
<polygon fill="#c0c0c0" stroke="#c0c0c0" stroke-width="2" points="1046.3062,-550.8761 1044.6388,-540.4133 1039.4176,-549.6322 1046.3062,-550.8761"/>
</g>
<!-- 17&#45;&gt;24 -->
<g id="edge36" class="edge">
<title>17&#45;&gt;24</title>
<path fill="none" stroke="#c0c0c0" stroke-width="2" d="M992.3176,-575.8314C969.6143,-566.159 941.5183,-554.1891 917.5892,-543.9944"/>
<polygon fill="#c0c0c0" stroke="#c0c0c0" stroke-width="2" points="918.8743,-540.7376 908.3026,-540.038 916.1306,-547.1775 918.8743,-540.7376"/>
</g>
<!-- 18 -->
<g id="node19" class="node">
<title>18</title>
<path fill="none" stroke="#c6d856" stroke-width="2" d="M133.9634,-252C133.9634,-252 41.9634,-252 41.9634,-252 35.9634,-252 29.9634,-246 29.9634,-240 29.9634,-240 29.9634,-228 29.9634,-228 29.9634,-222 35.9634,-216 41.9634,-216 41.9634,-216 133.9634,-216 133.9634,-216 139.9634,-216 145.9634,-222 145.9634,-228 145.9634,-228 145.9634,-240 145.9634,-240 145.9634,-246 139.9634,-252 133.9634,-252"/>
<text text-anchor="middle" x="87.9634" y="-231.5" font-family="sans" font-size="10.00" fill="#000000">split_data_reference</text>
</g>
<!-- 18&#45;&gt;1 -->
<g id="edge4" class="edge">
<title>18&#45;&gt;1</title>
<path fill="none" stroke="#c0c0c0" stroke-width="2" d="M146.1679,-216.7542C180.6921,-206.5248 224.6759,-193.4926 261.0713,-182.7088"/>
<polygon fill="#c0c0c0" stroke="#c0c0c0" stroke-width="2" points="262.5276,-185.9277 271.1213,-179.731 260.539,-179.2162 262.5276,-185.9277"/>
</g>
<!-- 19&#45;&gt;18 -->
<g id="edge25" class="edge">
<title>19&#45;&gt;18</title>
<path fill="none" stroke="#c0c0c0" stroke-width="2" d="M175.3082,-503.8958C158.4572,-495.4672 141.1539,-483.7414 129.9634,-468 85.2578,-405.1138 83.447,-309.2935 85.7235,-262.171"/>
<polygon fill="#c0c0c0" stroke="#c0c0c0" stroke-width="2" points="89.2235,-262.271 86.3116,-252.0842 82.2354,-261.8636 89.2235,-262.271"/>
</g>
<!-- 21 -->
<g id="node22" class="node">
<title>21</title>
<path fill="none" stroke="#d85656" stroke-width="2" d="M306.9634,-468C306.9634,-468 150.9634,-468 150.9634,-468 144.9634,-468 138.9634,-462 138.9634,-456 138.9634,-456 138.9634,-444 138.9634,-444 138.9634,-438 144.9634,-432 150.9634,-432 150.9634,-432 306.9634,-432 306.9634,-432 312.9634,-432 318.9634,-438 318.9634,-444 318.9634,-444 318.9634,-456 318.9634,-456 318.9634,-462 312.9634,-468 306.9634,-468"/>
<text text-anchor="middle" x="228.9634" y="-447.5" font-family="sans" font-size="10.00" fill="#000000">organize_training_data_reference</text>
</g>
<!-- 19&#45;&gt;21 -->
<g id="edge31" class="edge">
<title>19&#45;&gt;21</title>
<path fill="none" stroke="#c0c0c0" stroke-width="2" d="M226.7204,-503.8314C227.0413,-496.131 227.4228,-486.9743 227.7794,-478.4166"/>
<polygon fill="#c0c0c0" stroke="#c0c0c0" stroke-width="2" points="231.2767,-478.5503 228.1962,-468.4133 224.2828,-478.2589 231.2767,-478.5503"/>
</g>
<!-- 28 -->
<g id="node29" class="node">
<title>28</title>
<path fill="none" stroke="#5673d8" stroke-width="2" d="M241.4634,-180C241.4634,-180 100.4634,-180 100.4634,-180 94.4634,-180 88.4634,-174 88.4634,-168 88.4634,-168 88.4634,-156 88.4634,-156 88.4634,-150 94.4634,-144 100.4634,-144 100.4634,-144 241.4634,-144 241.4634,-144 247.4634,-144 253.4634,-150 253.4634,-156 253.4634,-156 253.4634,-168 253.4634,-168 253.4634,-174 247.4634,-180 241.4634,-180"/>
<text text-anchor="middle" x="170.9634" y="-159.5" font-family="sans" font-size="10.00" fill="#000000">split_data_classifier_reference</text>
</g>
<!-- 19&#45;&gt;28 -->
<g id="edge44" class="edge">
<title>19&#45;&gt;28</title>
<path fill="none" stroke="#c0c0c0" stroke-width="2" d="M149.8146,-506.1737C84.8767,-487.6963 1.9634,-450.0055 1.9634,-378 1.9634,-378 1.9634,-378 1.9634,-306 1.9634,-265.1184 -5.8902,-246.8252 20.9634,-216 36.0084,-198.7298 57.0009,-186.9823 78.5236,-178.9916"/>
<polygon fill="#c0c0c0" stroke="#c0c0c0" stroke-width="2" points="79.7865,-182.2584 88.0958,-175.6853 77.5011,-175.642 79.7865,-182.2584"/>
</g>
<!-- 20 -->
<g id="node21" class="node">
<title>20</title>
<path fill="none" stroke="#d8c356" stroke-width="2" d="M312.9634,-324C312.9634,-324 200.9634,-324 200.9634,-324 194.9634,-324 188.9634,-318 188.9634,-312 188.9634,-312 188.9634,-300 188.9634,-300 188.9634,-294 194.9634,-288 200.9634,-288 200.9634,-288 312.9634,-288 312.9634,-288 318.9634,-288 324.9634,-294 324.9634,-300 324.9634,-300 324.9634,-312 324.9634,-312 324.9634,-318 318.9634,-324 312.9634,-324"/>
<text text-anchor="middle" x="256.9634" y="-303.5" font-family="sans" font-size="10.00" fill="#000000">train_validate_reference</text>
</g>
<!-- 20&#45;&gt;18 -->
<g id="edge26" class="edge">
<title>20&#45;&gt;18</title>
<path fill="none" stroke="#c0c0c0" stroke-width="2" d="M214.3176,-287.8314C191.6143,-278.159 163.5183,-266.1891 139.5892,-255.9944"/>
<polygon fill="#c0c0c0" stroke="#c0c0c0" stroke-width="2" points="140.8743,-252.7376 130.3026,-252.038 138.1306,-259.1775 140.8743,-252.7376"/>
</g>
<!-- 29 -->
<g id="node30" class="node">
<title>29</title>
<path fill="none" stroke="#56b9d8" stroke-width="2" d="M337.4634,-252C337.4634,-252 176.4634,-252 176.4634,-252 170.4634,-252 164.4634,-246 164.4634,-240 164.4634,-240 164.4634,-228 164.4634,-228 164.4634,-222 170.4634,-216 176.4634,-216 176.4634,-216 337.4634,-216 337.4634,-216 343.4634,-216 349.4634,-222 349.4634,-228 349.4634,-228 349.4634,-240 349.4634,-240 349.4634,-246 343.4634,-252 337.4634,-252"/>
<text text-anchor="middle" x="256.9634" y="-231.5" font-family="sans" font-size="10.00" fill="#000000">train_validate_classifier_reference</text>
</g>
<!-- 20&#45;&gt;29 -->
<g id="edge46" class="edge">
<title>20&#45;&gt;29</title>
<path fill="none" stroke="#c0c0c0" stroke-width="2" d="M256.9634,-287.8314C256.9634,-280.131 256.9634,-270.9743 256.9634,-262.4166"/>
<polygon fill="#c0c0c0" stroke="#c0c0c0" stroke-width="2" points="260.4635,-262.4132 256.9634,-252.4133 253.4635,-262.4133 260.4635,-262.4132"/>
</g>
<!-- 21&#45;&gt;20 -->
<g id="edge29" class="edge">
<title>21&#45;&gt;20</title>
<path fill="none" stroke="#c0c0c0" stroke-width="2" d="M232.5096,-431.7623C237.3065,-407.0928 245.9073,-362.8598 251.5242,-333.9731"/>
<polygon fill="#c0c0c0" stroke="#c0c0c0" stroke-width="2" points="254.9728,-334.5738 253.446,-324.0896 248.1015,-333.2377 254.9728,-334.5738"/>
</g>
<!-- 22 -->
<g id="node23" class="node">
<title>22</title>
<path fill="none" stroke="#568ad8" stroke-width="2" d="M578.4634,-396C578.4634,-396 431.4634,-396 431.4634,-396 425.4634,-396 419.4634,-390 419.4634,-384 419.4634,-384 419.4634,-372 419.4634,-372 419.4634,-366 425.4634,-360 431.4634,-360 431.4634,-360 578.4634,-360 578.4634,-360 584.4634,-360 590.4634,-366 590.4634,-372 590.4634,-372 590.4634,-384 590.4634,-384 590.4634,-390 584.4634,-396 578.4634,-396"/>
<text text-anchor="middle" x="504.9634" y="-375.5" font-family="sans" font-size="10.00" fill="#000000">aggregate_organized_reference</text>
</g>
<!-- 21&#45;&gt;22 -->
<g id="edge33" class="edge">
<title>21&#45;&gt;22</title>
<path fill="none" stroke="#c0c0c0" stroke-width="2" d="M298.2536,-431.9243C337.0507,-421.8033 385.5754,-409.1447 425.8585,-398.6361"/>
<polygon fill="#c0c0c0" stroke="#c0c0c0" stroke-width="2" points="426.852,-401.9941 435.6447,-396.0831 425.085,-395.2208 426.852,-401.9941"/>
</g>
<!-- 21&#45;&gt;29 -->
<g id="edge47" class="edge">
<title>21&#45;&gt;29</title>
<path fill="none" stroke="#c0c0c0" stroke-width="2" d="M214.6775,-431.6618C192.4417,-400.7188 154.6096,-336.7478 179.9634,-288 186.3273,-275.7642 196.8746,-265.7239 208.1519,-257.7624"/>
<polygon fill="#c0c0c0" stroke="#c0c0c0" stroke-width="2" points="210.4001,-260.4745 216.8607,-252.0774 206.5737,-254.6129 210.4001,-260.4745"/>
</g>
<!-- 22&#45;&gt;20 -->
<g id="edge30" class="edge">
<title>22&#45;&gt;20</title>
<path fill="none" stroke="#c0c0c0" stroke-width="2" d="M442.7026,-359.9243C408.21,-349.9103 365.1604,-337.412 329.1935,-326.97"/>
<polygon fill="#c0c0c0" stroke="#c0c0c0" stroke-width="2" points="329.8291,-323.5101 319.2498,-324.0831 327.8774,-330.2325 329.8291,-323.5101"/>
</g>
<!-- 22&#45;&gt;29 -->
<g id="edge48" class="edge">
<title>22&#45;&gt;29</title>
<path fill="none" stroke="#c0c0c0" stroke-width="2" d="M473.8051,-359.9081C428.9809,-333.8812 346.2846,-285.8639 296.9886,-257.2404"/>
<polygon fill="#c0c0c0" stroke="#c0c0c0" stroke-width="2" points="298.5946,-254.1258 288.1893,-252.1311 295.0797,-260.1793 298.5946,-254.1258"/>
</g>
<!-- 35 -->
<g id="node36" class="node">
<title>35</title>
<path fill="none" stroke="#d8c356" stroke-width="2" d="M861.9634,-324C861.9634,-324 749.9634,-324 749.9634,-324 743.9634,-324 737.9634,-318 737.9634,-312 737.9634,-312 737.9634,-300 737.9634,-300 737.9634,-294 743.9634,-288 749.9634,-288 749.9634,-288 861.9634,-288 861.9634,-288 867.9634,-288 873.9634,-294 873.9634,-300 873.9634,-300 873.9634,-312 873.9634,-312 873.9634,-318 867.9634,-324 861.9634,-324"/>
<text text-anchor="middle" x="805.9634" y="-303.5" font-family="sans" font-size="10.00" fill="#000000">train_validate_reference</text>
</g>
<!-- 22&#45;&gt;35 -->
<g id="edge60" class="edge">
<title>22&#45;&gt;35</title>
<path fill="none" stroke="#c0c0c0" stroke-width="2" d="M580.5299,-359.9243C625.5515,-349.155 682.5845,-335.5126 728.0197,-324.6443"/>
<polygon fill="#c0c0c0" stroke="#c0c0c0" stroke-width="2" points="728.9132,-328.0294 737.8246,-322.299 727.2847,-321.2215 728.9132,-328.0294"/>
</g>
<!-- 40 -->
<g id="node41" class="node">
<title>40</title>
<path fill="none" stroke="#56b9d8" stroke-width="2" d="M950.4634,-252C950.4634,-252 789.4634,-252 789.4634,-252 783.4634,-252 777.4634,-246 777.4634,-240 777.4634,-240 777.4634,-228 777.4634,-228 777.4634,-222 783.4634,-216 789.4634,-216 789.4634,-216 950.4634,-216 950.4634,-216 956.4634,-216 962.4634,-222 962.4634,-228 962.4634,-228 962.4634,-240 962.4634,-240 962.4634,-246 956.4634,-252 950.4634,-252"/>
<text text-anchor="middle" x="869.9634" y="-231.5" font-family="sans" font-size="10.00" fill="#000000">train_validate_classifier_reference</text>
</g>
<!-- 22&#45;&gt;40 -->
<g id="edge72" class="edge">
<title>22&#45;&gt;40</title>
<path fill="none" stroke="#c0c0c0" stroke-width="2" d="M516.5201,-359.9351C530.8678,-339.0975 557.349,-305.4711 588.9634,-288 597.0256,-283.5446 690.0945,-266.1212 766.9484,-252.2545"/>
<polygon fill="#c0c0c0" stroke="#c0c0c0" stroke-width="2" points="767.9715,-255.6267 777.1929,-250.4098 766.7309,-248.7375 767.9715,-255.6267"/>
</g>
<!-- 23 -->
<g id="node24" class="node">
<title>23</title>
<path fill="none" stroke="#d85656" stroke-width="2" d="M929.9634,-468C929.9634,-468 773.9634,-468 773.9634,-468 767.9634,-468 761.9634,-462 761.9634,-456 761.9634,-456 761.9634,-444 761.9634,-444 761.9634,-438 767.9634,-432 773.9634,-432 773.9634,-432 929.9634,-432 929.9634,-432 935.9634,-432 941.9634,-438 941.9634,-444 941.9634,-444 941.9634,-456 941.9634,-456 941.9634,-462 935.9634,-468 929.9634,-468"/>
<text text-anchor="middle" x="851.9634" y="-447.5" font-family="sans" font-size="10.00" fill="#000000">organize_training_data_reference</text>
</g>
<!-- 23&#45;&gt;22 -->
<g id="edge32" class="edge">
<title>23&#45;&gt;22</title>
<path fill="none" stroke="#c0c0c0" stroke-width="2" d="M764.8485,-431.9243C714.8786,-421.5559 652.0735,-408.5243 600.7224,-397.8693"/>
<polygon fill="#c0c0c0" stroke="#c0c0c0" stroke-width="2" points="601.1147,-394.3762 590.6121,-395.7715 599.6925,-401.2302 601.1147,-394.3762"/>
</g>
<!-- 23&#45;&gt;35 -->
<g id="edge59" class="edge">
<title>23&#45;&gt;35</title>
<path fill="none" stroke="#c0c0c0" stroke-width="2" d="M839.813,-431.7292C833.5951,-421.5915 826.4173,-408.5305 821.9634,-396 814.8434,-375.9688 810.7937,-352.258 808.5508,-334.2033"/>
<polygon fill="#c0c0c0" stroke="#c0c0c0" stroke-width="2" points="812.0029,-333.5812 807.4029,-324.037 805.0471,-334.3666 812.0029,-333.5812"/>
</g>
<!-- 23&#45;&gt;40 -->
<g id="edge71" class="edge">
<title>23&#45;&gt;40</title>
<path fill="none" stroke="#c0c0c0" stroke-width="2" d="M915.0849,-431.9821C932.2884,-423.8624 948.9295,-412.3031 958.9634,-396 988.1265,-348.6156 936.9593,-291.104 900.8981,-258.9197"/>
<polygon fill="#c0c0c0" stroke="#c0c0c0" stroke-width="2" points="902.8596,-255.9873 893.0166,-252.0674 898.2668,-261.2699 902.8596,-255.9873"/>
</g>
<!-- 24&#45;&gt;23 -->
<g id="edge34" class="edge">
<title>24&#45;&gt;23</title>
<path fill="none" stroke="#c0c0c0" stroke-width="2" d="M862.4306,-503.8314C860.9333,-496.131 859.1528,-486.9743 857.4888,-478.4166"/>
<polygon fill="#c0c0c0" stroke="#c0c0c0" stroke-width="2" points="860.8882,-477.5614 855.5437,-468.4133 854.0169,-478.8975 860.8882,-477.5614"/>
</g>
<!-- 34 -->
<g id="node35" class="node">
<title>34</title>
<path fill="none" stroke="#c6d856" stroke-width="2" d="M746.9634,-252C746.9634,-252 654.9634,-252 654.9634,-252 648.9634,-252 642.9634,-246 642.9634,-240 642.9634,-240 642.9634,-228 642.9634,-228 642.9634,-222 648.9634,-216 654.9634,-216 654.9634,-216 746.9634,-216 746.9634,-216 752.9634,-216 758.9634,-222 758.9634,-228 758.9634,-228 758.9634,-240 758.9634,-240 758.9634,-246 752.9634,-252 746.9634,-252"/>
<text text-anchor="middle" x="700.9634" y="-231.5" font-family="sans" font-size="10.00" fill="#000000">split_data_reference</text>
</g>
<!-- 24&#45;&gt;34 -->
<g id="edge57" class="edge">
<title>24&#45;&gt;34</title>
<path fill="none" stroke="#c0c0c0" stroke-width="2" d="M803.3533,-503.9731C784.696,-495.7713 765.8201,-484.1669 752.9634,-468 704.4209,-406.9593 699.0826,-309.8905 699.7072,-262.2523"/>
<polygon fill="#c0c0c0" stroke="#c0c0c0" stroke-width="2" points="703.2107,-262.1388 699.9441,-252.0601 696.2126,-261.9761 703.2107,-262.1388"/>
</g>
<!-- 39 -->
<g id="node40" class="node">
<title>39</title>
<path fill="none" stroke="#5673d8" stroke-width="2" d="M1068.4634,-180C1068.4634,-180 927.4634,-180 927.4634,-180 921.4634,-180 915.4634,-174 915.4634,-168 915.4634,-168 915.4634,-156 915.4634,-156 915.4634,-150 921.4634,-144 927.4634,-144 927.4634,-144 1068.4634,-144 1068.4634,-144 1074.4634,-144 1080.4634,-150 1080.4634,-156 1080.4634,-156 1080.4634,-168 1080.4634,-168 1080.4634,-174 1074.4634,-180 1068.4634,-180"/>
<text text-anchor="middle" x="997.9634" y="-159.5" font-family="sans" font-size="10.00" fill="#000000">split_data_classifier_reference</text>
</g>
<!-- 24&#45;&gt;39 -->
<g id="edge68" class="edge">
<title>24&#45;&gt;39</title>
<path fill="none" stroke="#c0c0c0" stroke-width="2" d="M942.1364,-509.6215C1012.1894,-497.6363 1107.232,-479.6195 1120.9634,-468 1199.7167,-401.3586 1186.7377,-353.3584 1205.9634,-252 1208.9451,-236.2803 1215.753,-228.6556 1205.9634,-216 1198.3773,-206.1929 1142.5846,-192.0103 1090.6952,-180.6407"/>
<polygon fill="#c0c0c0" stroke="#c0c0c0" stroke-width="2" points="1091.2397,-177.1775 1080.7251,-178.4794 1089.7566,-184.0186 1091.2397,-177.1775"/>
</g>
<!-- 25 -->
<g id="node26" class="node">
<title>25</title>
<path fill="none" stroke="#d8b456" stroke-width="2" d="M290.4634,-108C290.4634,-108 147.4634,-108 147.4634,-108 141.4634,-108 135.4634,-102 135.4634,-96 135.4634,-96 135.4634,-84 135.4634,-84 135.4634,-78 141.4634,-72 147.4634,-72 147.4634,-72 290.4634,-72 290.4634,-72 296.4634,-72 302.4634,-78 302.4634,-84 302.4634,-84 302.4634,-96 302.4634,-96 302.4634,-102 296.4634,-108 290.4634,-108"/>
<text text-anchor="middle" x="218.9634" y="-87.5" font-family="sans" font-size="10.00" fill="#000000">find_breakpoints_het_classifier</text>
</g>
<!-- 25&#45;&gt;0 -->
<g id="edge2" class="edge">
<title>25&#45;&gt;0</title>
<path fill="none" stroke="#c0c0c0" stroke-width="2" d="M233.0946,-71.8314C239.5445,-63.5386 247.3079,-53.557 254.3886,-44.4533"/>
<polygon fill="#c0c0c0" stroke="#c0c0c0" stroke-width="2" points="257.2653,-46.4556 260.642,-36.4133 251.7398,-42.158 257.2653,-46.4556"/>
</g>
<!-- 26&#45;&gt;25 -->
<g id="edge37" class="edge">
<title>26&#45;&gt;25</title>
<path fill="none" stroke="#c0c0c0" stroke-width="2" d="M408.2171,-145.3913C373.1787,-135.1362 327.9163,-121.8887 290.4419,-110.9206"/>
<polygon fill="#c0c0c0" stroke="#c0c0c0" stroke-width="2" points="291.1756,-107.4885 280.5951,-108.0385 289.2093,-114.2067 291.1756,-107.4885"/>
</g>
<!-- 27&#45;&gt;26 -->
<g id="edge40" class="edge">
<title>27&#45;&gt;26</title>
<path fill="none" stroke="#c0c0c0" stroke-width="2" d="M534.4956,-215.8314C522.9307,-206.8779 508.823,-195.9558 496.3451,-186.2955"/>
<polygon fill="#c0c0c0" stroke="#c0c0c0" stroke-width="2" points="498.4736,-183.5171 488.4237,-180.1628 494.1883,-189.0521 498.4736,-183.5171"/>
</g>
<!-- 28&#45;&gt;25 -->
<g id="edge38" class="edge">
<title>28&#45;&gt;25</title>
<path fill="none" stroke="#c0c0c0" stroke-width="2" d="M183.0758,-143.8314C188.4915,-135.7079 194.9876,-125.9637 200.9555,-117.0118"/>
<polygon fill="#c0c0c0" stroke="#c0c0c0" stroke-width="2" points="204.053,-118.6753 206.6879,-108.4133 198.2287,-114.7923 204.053,-118.6753"/>
</g>
<!-- 29&#45;&gt;28 -->
<g id="edge45" class="edge">
<title>29&#45;&gt;28</title>
<path fill="none" stroke="#c0c0c0" stroke-width="2" d="M235.262,-215.8314C224.7713,-207.0485 212.0179,-196.3712 200.644,-186.8489"/>
<polygon fill="#c0c0c0" stroke="#c0c0c0" stroke-width="2" points="202.5723,-183.8986 192.6579,-180.1628 198.0787,-189.2659 202.5723,-183.8986"/>
</g>
<!-- 30 -->
<g id="node31" class="node">
<title>30</title>
<path fill="none" stroke="#d89c56" stroke-width="2" d="M953.4634,-36C953.4634,-36 906.4634,-36 906.4634,-36 900.4634,-36 894.4634,-30 894.4634,-24 894.4634,-24 894.4634,-12 894.4634,-12 894.4634,-6 900.4634,0 906.4634,0 906.4634,0 953.4634,0 953.4634,0 959.4634,0 965.4634,-6 965.4634,-12 965.4634,-12 965.4634,-24 965.4634,-24 965.4634,-30 959.4634,-36 953.4634,-36"/>
<text text-anchor="middle" x="929.9634" y="-15.5" font-family="sans" font-size="10.00" fill="#000000">benchmark</text>
</g>
<!-- 31 -->
<g id="node32" class="node">
<title>31</title>
<path fill="none" stroke="#d88d56" stroke-width="2" d="M885.4634,-180C885.4634,-180 790.4634,-180 790.4634,-180 784.4634,-180 778.4634,-174 778.4634,-168 778.4634,-168 778.4634,-156 778.4634,-156 778.4634,-150 784.4634,-144 790.4634,-144 790.4634,-144 885.4634,-144 885.4634,-144 891.4634,-144 897.4634,-150 897.4634,-156 897.4634,-156 897.4634,-168 897.4634,-168 897.4634,-174 891.4634,-180 885.4634,-180"/>
<text text-anchor="middle" x="837.9634" y="-159.5" font-family="sans" font-size="10.00" fill="#000000">find_breakpoints_het</text>
</g>
<!-- 31&#45;&gt;30 -->
<g id="edge49" class="edge">
<title>31&#45;&gt;30</title>
<path fill="none" stroke="#c0c0c0" stroke-width="2" d="M849.6153,-143.7623C865.5837,-118.7682 894.3822,-73.6924 912.8151,-44.8409"/>
<polygon fill="#c0c0c0" stroke="#c0c0c0" stroke-width="2" points="915.9716,-46.401 918.4061,-36.0896 910.0728,-42.6322 915.9716,-46.401"/>
</g>
<!-- 32&#45;&gt;31 -->
<g id="edge51" class="edge">
<title>32&#45;&gt;31</title>
<path fill="none" stroke="#c0c0c0" stroke-width="2" d="M1131.1103,-218.7373C1128.3842,-217.7287 1125.6456,-216.7987 1122.9634,-216 1032.6929,-189.1192 1003.9895,-199.5668 907.5848,-179.9985"/>
<polygon fill="#c0c0c0" stroke="#c0c0c0" stroke-width="2" points="908.2281,-176.5575 897.724,-177.9413 906.7985,-183.4099 908.2281,-176.5575"/>
</g>
<!-- 33&#45;&gt;32 -->
<g id="edge54" class="edge">
<title>33&#45;&gt;32</title>
<path fill="none" stroke="#c0c0c0" stroke-width="2" d="M1077.2351,-287.8314C1092.0722,-278.6221 1110.2649,-267.3301 1126.1496,-257.4706"/>
<polygon fill="#c0c0c0" stroke="#c0c0c0" stroke-width="2" points="1128.0504,-260.4102 1134.7011,-252.1628 1124.3589,-254.4628 1128.0504,-260.4102"/>
</g>
<!-- 33&#45;&gt;38 -->
<g id="edge65" class="edge">
<title>33&#45;&gt;38</title>
<path fill="none" stroke="#c0c0c0" stroke-width="2" d="M1047.711,-287.8314C1047.6041,-280.131 1047.4769,-270.9743 1047.3581,-262.4166"/>
<polygon fill="#c0c0c0" stroke="#c0c0c0" stroke-width="2" points="1050.8578,-262.3637 1047.2191,-252.4133 1043.8584,-262.4609 1050.8578,-262.3637"/>
</g>
<!-- 34&#45;&gt;31 -->
<g id="edge52" class="edge">
<title>34&#45;&gt;31</title>
<path fill="none" stroke="#c0c0c0" stroke-width="2" d="M735.5343,-215.8314C753.3819,-206.4516 775.3408,-194.9112 794.3434,-184.9244"/>
<polygon fill="#c0c0c0" stroke="#c0c0c0" stroke-width="2" points="796.1798,-187.9132 803.4036,-180.1628 792.9233,-181.7168 796.1798,-187.9132"/>
</g>
<!-- 35&#45;&gt;34 -->
<g id="edge58" class="edge">
<title>35&#45;&gt;34</title>
<path fill="none" stroke="#c0c0c0" stroke-width="2" d="M779.4675,-287.8314C766.286,-278.7927 750.1787,-267.7476 735.9923,-258.0198"/>
<polygon fill="#c0c0c0" stroke="#c0c0c0" stroke-width="2" points="737.6775,-254.9316 727.4508,-252.1628 733.7188,-260.7047 737.6775,-254.9316"/>
</g>
<!-- 35&#45;&gt;40 -->
<g id="edge70" class="edge">
<title>35&#45;&gt;40</title>
<path fill="none" stroke="#c0c0c0" stroke-width="2" d="M822.1133,-287.8314C829.6351,-279.3694 838.7199,-269.1489 846.9438,-259.8971"/>
<polygon fill="#c0c0c0" stroke="#c0c0c0" stroke-width="2" points="849.5683,-262.2127 853.596,-252.4133 844.3364,-257.5621 849.5683,-262.2127"/>
</g>
<!-- 36 -->
<g id="node37" class="node">
<title>36</title>
<path fill="none" stroke="#d8b456" stroke-width="2" d="M1069.4634,-108C1069.4634,-108 926.4634,-108 926.4634,-108 920.4634,-108 914.4634,-102 914.4634,-96 914.4634,-96 914.4634,-84 914.4634,-84 914.4634,-78 920.4634,-72 926.4634,-72 926.4634,-72 1069.4634,-72 1069.4634,-72 1075.4634,-72 1081.4634,-78 1081.4634,-84 1081.4634,-84 1081.4634,-96 1081.4634,-96 1081.4634,-102 1075.4634,-108 1069.4634,-108"/>
<text text-anchor="middle" x="997.9634" y="-87.5" font-family="sans" font-size="10.00" fill="#000000">find_breakpoints_het_classifier</text>
</g>
<!-- 36&#45;&gt;30 -->
<g id="edge50" class="edge">
<title>36&#45;&gt;30</title>
<path fill="none" stroke="#c0c0c0" stroke-width="2" d="M980.8041,-71.8314C972.8122,-63.3694 963.1596,-53.1489 954.4218,-43.8971"/>
<polygon fill="#c0c0c0" stroke="#c0c0c0" stroke-width="2" points="956.7645,-41.2802 947.3537,-36.4133 951.6754,-46.0866 956.7645,-41.2802"/>
</g>
<!-- 37&#45;&gt;36 -->
<g id="edge61" class="edge">
<title>37&#45;&gt;36</title>
<path fill="none" stroke="#c0c0c0" stroke-width="2" d="M1115.3457,-143.8314C1094.4412,-134.2446 1068.6151,-122.4008 1046.5146,-112.2655"/>
<polygon fill="#c0c0c0" stroke="#c0c0c0" stroke-width="2" points="1047.845,-109.0252 1037.2962,-108.038 1044.927,-115.388 1047.845,-109.0252"/>
</g>
<!-- 38&#45;&gt;37 -->
<g id="edge64" class="edge">
<title>38&#45;&gt;37</title>
<path fill="none" stroke="#c0c0c0" stroke-width="2" d="M1074.2164,-215.8314C1087.9023,-206.7074 1104.6548,-195.539 1119.3461,-185.7449"/>
<polygon fill="#c0c0c0" stroke="#c0c0c0" stroke-width="2" points="1121.3401,-188.6221 1127.7192,-180.1628 1117.4572,-182.7977 1121.3401,-188.6221"/>
</g>
<!-- 39&#45;&gt;36 -->
<g id="edge62" class="edge">
<title>39&#45;&gt;36</title>
<path fill="none" stroke="#c0c0c0" stroke-width="2" d="M997.9634,-143.8314C997.9634,-136.131 997.9634,-126.9743 997.9634,-118.4166"/>
<polygon fill="#c0c0c0" stroke="#c0c0c0" stroke-width="2" points="1001.4635,-118.4132 997.9634,-108.4133 994.4635,-118.4133 1001.4635,-118.4132"/>
</g>
<!-- 40&#45;&gt;39 -->
<g id="edge69" class="edge">
<title>40&#45;&gt;39</title>
<path fill="none" stroke="#c0c0c0" stroke-width="2" d="M902.2632,-215.8314C918.7868,-206.5368 939.082,-195.1208 956.7241,-185.1971"/>
<polygon fill="#c0c0c0" stroke="#c0c0c0" stroke-width="2" points="958.6741,-188.116 965.6739,-180.1628 955.2422,-182.015 958.6741,-188.116"/>
</g>
</g>
</svg>
